<svg aria-hidden="true" style="position: absolute; width: 0; height: 0; overflow: hidden;" version="1.1" xmlns="http://www.w3.org/2000/svg" xmlns:xlink="http://www.w3.org/1999/xlink">
<defs>
<symbol id="icon-Logo" viewBox="0 0 79 32">
<path fill="#f9f9f9" style="fill: var(--color1, #f9f9f9)" d="M0 20.706v-20.706h24.264c3.299 0 6.512 1.051 9.173 3.001 1.591 1.166 2.861 2.715 3.693 4.503l2.807 6.034c1.084-2.647 2.443-5.173 4.055-7.536l0.139-0.204c0.463-0.679 0.992-1.31 1.58-1.884l1.196-1.168c0.779-0.762 1.704-1.358 2.719-1.755l0.103-0.040c1.608-0.629 3.32-0.951 5.047-0.951h24.283v20.706h-79.059z"></path>
<path fill="#f9f9f9" style="fill: var(--color1, #f9f9f9)" d="M0 24.471h79.059v7.529h-79.059v-7.529z"></path>
</symbol>
<symbol id="icon-eye" viewBox="0 0 32 32">
<path fill="none" stroke="#f9f9f9" style="stroke: var(--color1, #f9f9f9)" stroke-linejoin="round" stroke-linecap="round" stroke-miterlimit="4" stroke-width="2.3111" d="M1.333 16c0 0 5.333-10.667 14.667-10.667s14.667 10.667 14.667 10.667c0 0-5.333 10.667-  14.667 10.667s-14.667-10.667-14.667-10.667z"></path>
<path fill="none" stroke="#f9f9f9" style="stroke: var(--color1, #f9f9f9)" stroke-linejoin="round" stroke-linecap="round" stroke-miterlimit="4" stroke-width="2.3111" d="M16 20c2.209 0 4-1.791 4-4s-1.791-4-4-4c-2.209 0-4 1.791-4 4s1.791 4 4 4z"></path>
</symbol>
<symbol id="icon-eye-off" viewBox="0 0 32 32">
<path fill="none" stroke="#f9f9f9" style="stroke: var(--color1, #f9f9f9)" stroke-linejoin="round" stroke-linecap="round" stroke-miterlimit="4" stroke-width="2.0800" d="M23.92 23.92c-2.279 1.737-5.055 2.7-7.92 2.747-9.333 0-14.667-10.667-14.667-10.667 1.659-3.091 3.959-5.791 6.747-7.92M13.2 5.653c0.918-0.215 1.857-0.322 2.8-0.32 9.333 0 14.667 10.667 14.667 10.667-0.809 1.514-1.775 2.94-2.88 4.253M18.827 18.827c-0.366 0.393-0.808 0.708-1.299 0.927s-1.020 0.336-1.557 0.346c-0.537 0.009-1.071-0.089-1.569-0.291s-0.95-0.501-1.33-0.88c-0.38-0.38-0.679-0.832-0.88-1.33s-0.3-1.032-0.29-1.569c0.009-0.537 0.127-1.067 0.346-1.558s0.534-0.932 0.927-1.298"></path>
<path fill="none" stroke="#f9f9f9" style="stroke: var(--color1, #f9f9f9)" stroke-linejoin="round" stroke-linecap="round" stroke-miterlimit="4" stroke-width="2.0800" d="M1.333 1.333l29.333 29.333"></path>
</symbol>
<symbol id="icon-menu-open" viewBox="0 0 32 32">
<path fill="none" stroke="#f9f9f9" style="stroke: var(--color1, #f9f9f9)" stroke-linejoin="round" stroke-linecap="round" stroke-miterlimit="4" stroke-width="2.2857" d="M24 8l-16 16"></path>
<path fill="none" stroke="#f9f9f9" style="stroke: var(--color1, #f9f9f9)" stroke-linejoin="round" stroke-linecap="round" stroke-miterlimit="4" stroke-width="2.2857" d="M8 8l16 16"></path>
</symbol>
<symbol id="icon-menu-close" viewBox="0 0 32 32">
<path fill="none" stroke="#f9f9f9" style="stroke: var(--color1, #f9f9f9)" stroke-linejoin="round" stroke-linecap="round" stroke-miterlimit="4" stroke-width="2.2857" d="M4 16h24M4 8h24M12 24h16"></path>
</symbol>
<symbol id="icon-log-in" viewBox="0 0 32 32">
<path fill="none" stroke="#f9f9f9" style="stroke: var(--color1, #f9f9f9)" stroke-linejoin="round" stroke-linecap="round" stroke-miterlimit="4" stroke-width="2.6667" d="M18.667 22.667l6.667-6.667-6.667-6.667"></path>
<path fill="none" stroke="#f9f9f9" style="stroke: var(--color1, #f9f9f9)" stroke-linejoin="round" stroke-linecap="round" stroke-miterlimit="4" stroke-width="2.6667" d="M25.333 16h-18.667"></path>
</symbol>
<symbol id="icon-error" viewBox="0 0 32 32">
<path fill="#e90516" style="fill: var(--color1, #e90516)" d="M16 29c-3.448 0-6.754-1.37-9.192-3.808s-3.808-5.744-3.808-9.192c0-3.448 1.37-6.754 3.808-9.192s5.745-3.808 9.192-3.808c3.448 0 6.754 1.37 9.192 3.808s3.808 5.745 3.808 9.192c0 3.448-1.37 6.754-3.808 9.192s-5.744 3.808-9.192 3.808zM16 32c4.244 0 8.313-1.686 11.314-4.686s4.686-7.070 4.686-11.314c0-4.243-1.686-8.313-4.686-11.314s-7.070-4.686-11.314-4.686c-4.243 0-8.313 1.686-11.314 4.686s-4.686 7.070-4.686 11.314c0 4.244 1.686 8.313 4.686 11.314s7.070 4.686 11.314 4.686zM18 22c0 0.53-0.211 1.039-0.586 1.414s-0.884 0.586-1.414 0.586c-0.53 0-1.039-0.211-1.414-0.586s-0.586-0.884-0.586-1.414c0-0.53 0.211-1.039 0.586-1.414s0.884-0.586 1.414-0.586c0.53 0 1.039 0.211 1.414 0.586s0.586 0.884 0.586 1.414zM17.5 9.5c0-0.398-0.158-0.779-0.439-1.061s-0.663-0.439-1.061-0.439c-0.398 0-0.779 0.158-1.061 0.439s-0.439 0.663-0.439 1.061v7c0 0.398 0.158 0.779 0.439 1.061s0.663 0.439 1.061 0.439c0.398 0 0.779-0.158 1.061-0.439s0.439-0.663 0.439-1.061v-7z"></path>
</symbol>
<symbol id="icon-success" viewBox="0 0 32 32">
<path fill="#30b94d" style="fill: var(--color1, #30b94d)" d="M15 21.76l-5.4-6.081 1.8-2.026 3.601 4.052 7.199-8.105 1.801 2.027-9 10.133z"></path>
<path fill="#30b94d" style="fill: var(--color1, #30b94d)" d="M0 16c0 8.836 7.164 16 16 16s16-7.164 16-16c0-8.836-7.164-16-16-16s-16 7.164-16 16zM16 29.091c-1.719 0-3.421-0.339-5.010-0.996s-3.031-1.622-4.247-2.838c-1.216-1.216-2.18-2.659-2.838-4.247s-0.997-3.29-0.997-5.010c0-1.719 0.339-3.421 0.997-5.010s1.622-3.031 2.838-4.247c1.216-1.216 2.659-2.18 4.247-2.838s3.291-0.997 5.010-0.997c3.472 0 6.802 1.379 9.257 3.834s3.834 5.785 3.834 9.257c0 3.472-1.379 6.802-3.834 9.257s-5.785 3.834-9.257 3.834z"></path>
</symbol>
<symbol id="icon-chevron-right" viewBox="0 0 32 32">
  <path fill="none" stroke="inherit" stroke-linejoin="round" stroke-linecap="round" stroke-miterlimit="4" stroke-width="3" d="M12 8l8 8-8 8"></path>
</symbol>
<symbol id="icon-chevron-left" viewBox="0 0 32 32">
  <path fill="none" stroke="inherit" stroke-linejoin="round" stroke-linecap="round" stroke-miterlimit="4" stroke-width="3" d="M20 24l-8-8 8-8"></path>
</symbol>
<symbol id="icon-chevron-down" viewBox="0 0 32 32">
<path fill="none" stroke="#f9f9f9" style="stroke: var(--color1, #f9f9f9)" stroke-linejoin="round" stroke-linecap="round" stroke-miterlimit="4" stroke-width="3" d="M8 12l8 8 8-8"></path>
</symbol>
<symbol id="icon-trash" viewBox="0 0 32 32">
<path fill="none" stroke="#e85050" style="stroke: var(--color1, #e85050)" stroke-linejoin="round" stroke-linecap="round" stroke-miterlimit="4" stroke-width="2.2857" d="M4 8h24"></path>
<path fill="none" stroke="#e85050" style="stroke: var(--color1, #e85050)" stroke-linejoin="round" stroke-linecap="round" stroke-miterlimit="4" stroke-width="2.2857" d="M25.334 8v18.667c0 0.707-0.281 1.385-0.781 1.886s-1.178 0.781-1.886 0.781h-13.333c-0.707 0-1.386-0.281-1.886-0.781s-0.781-1.178-0.781-1.886v-18.667M10.667 8v-2.667c0-0.707 0.281-1.385 0.781-1.886s1.178-0.781 1.886-0.781h5.333c0.707 0 1.386 0.281 1.886 0.781s0.781 1.178 0.781 1.886v2.667"></path>
<path fill="none" stroke="#e85050" style="stroke: var(--color1, #e85050)" stroke-linejoin="round" stroke-linecap="round" stroke-miterlimit="4" stroke-width="2.2857" d="M13.333 14.667v8"></path>
<path fill="none" stroke="#e85050" style="stroke: var(--color1, #e85050)" stroke-linejoin="round" stroke-linecap="round" stroke-miterlimit="4" stroke-width="2.2857" d="M18.667 14.667v8"></path>
</symbol>
</defs>
</svg>
