<svg aria-hidden="true" style="position: absolute; width: 0; height: 0; overflow: hidden;" version="1.1" xmlns="http://www.w3.org/2000/svg" xmlns:xlink="http://www.w3.org/1999/xlink">
<defs>
<symbol id="icon-Logo" viewBox="0 0 79 32">
<path fill="#f9f9f9" style="fill: var(--color1, #f9f9f9)" d="M0 20.706v-20.706h24.264c3.299 0 6.512 1.051 9.173 3.001 1.591 1.166 2.861 2.715 3.693 4.503l2.807 6.034c1.084-2.647 2.443-5.173 4.055-7.536l0.139-0.204c0.463-0.679 0.992-1.31 1.58-1.884l1.196-1.168c0.779-0.762 1.704-1.358 2.719-1.755l0.103-0.040c1.608-0.629 3.32-0.951 5.047-0.951h24.283v20.706h-79.059z"></path>
<path fill="#f9f9f9" style="fill: var(--color1, #f9f9f9)" d="M0 24.471h79.059v7.529h-79.059v-7.529z"></path>
</symbol>
<symbol id="icon-eye" viewBox="0 0 32 32">
<path fill="none" stroke="#f9f9f9" style="stroke: var(--color1, #f9f9f9)" stroke-linejoin="round" stroke-linecap="round" stroke-miterlimit="4" stroke-width="2.3111" d="M1.333 16c0 0 5.333-10.667 14.667-10.667s14.667 10.667 14.667 10.667c0 0-5.333 10.667-  14.667 10.667s-14.667-10.667-14.667-10.667z"></path>
<path fill="none" stroke="#f9f9f9" style="stroke: var(--color1, #f9f9f9)" stroke-linejoin="round" stroke-linecap="round" stroke-miterlimit="4" stroke-width="2.3111" d="M16 20c2.209 0 4-1.791 4-4s-1.791-4-4-4c-2.209 0-4 1.791-4 4s1.791 4 4 4z"></path>
</symbol>
<symbol id="icon-eye-off" viewBox="0 0 32 32">
<path fill="none" stroke="#f9f9f9" style="stroke: var(--color1, #f9f9f9)" stroke-linejoin="round" stroke-linecap="round" stroke-miterlimit="4" stroke-width="2.0800" d="M23.92 23.92c-2.279 1.737-5.055 2.7-7.92 2.747-9.333 0-14.667-10.667-14.667-10.667 1.659-3.091 3.959-5.791 6.747-7.92M13.2 5.653c0.918-0.215 1.857-0.322 2.8-0.32 9.333 0 14.667 10.667 14.667 10.667-0.809 1.514-1.775 2.94-2.88 4.253M18.827 18.827c-0.366 0.393-0.808 0.708-1.299 0.927s-1.020 0.336-1.557 0.346c-0.537 0.009-1.071-0.089-1.569-0.291s-0.95-0.501-1.33-0.88c-0.38-0.38-0.679-0.832-0.88-1.33s-0.3-1.032-0.29-1.569c0.009-0.537 0.127-1.067 0.346-1.558s0.534-0.932 0.927-1.298"></path>
<path fill="none" stroke="#f9f9f9" style="stroke: var(--color1, #f9f9f9)" stroke-linejoin="round" stroke-linecap="round" stroke-miterlimit="4" stroke-width="2.0800" d="M1.333 1.333l29.333 29.333"></path>
</symbol>
<symbol id="icon-menu-open" viewBox="0 0 32 32">
<path fill="none" stroke="#f9f9f9" style="stroke: var(--color1, #f9f9f9)" stroke-linejoin="round" stroke-linecap="round" stroke-miterlimit="4" stroke-width="2.2857" d="M24 8l-16 16"></path>
<path fill="none" stroke="#f9f9f9" style="stroke: var(--color1, #f9f9f9)" stroke-linejoin="round" stroke-linecap="round" stroke-miterlimit="4" stroke-width="2.2857" d="M8 8l16 16"></path>
</symbol>
<symbol id="icon-menu-close" viewBox="0 0 32 32">
<path fill="none" stroke="#f9f9f9" style="stroke: var(--color1, #f9f9f9)" stroke-linejoin="round" stroke-linecap="round" stroke-miterlimit="4" stroke-width="2.2857" d="M4 16h24M4 8h24M12 24h16"></path>
</symbol>
</defs>
</svg>
